<mxfile host="Electron" modified="2024-10-21T19:13:04.397Z" agent="Mozilla/5.0 (Windows NT 10.0; Win64; x64) AppleWebKit/537.36 (KHTML, like Gecko) draw.io/21.6.8 Chrome/114.0.5735.289 Electron/25.5.0 Safari/537.36" etag="VElFexdXCtEU97EypYc4" version="21.6.8" type="device">
  <diagram name="Page-1" id="iG61husFeyrqgnYdjMT9">
    <mxGraphModel dx="568" dy="1498" grid="1" gridSize="10" guides="1" tooltips="1" connect="1" arrows="1" fold="1" page="1" pageScale="1" pageWidth="827" pageHeight="1169" math="0" shadow="0">
      <root>
        <mxCell id="0" />
        <mxCell id="1" parent="0" />
        <mxCell id="KkQubDsr22zkd_DNrsne-3" value="DATA id, id / num * str /, ( id(id), id = expr, expr ) / num * num / &lt;br&gt;" style="text;html=1;strokeColor=none;fillColor=none;align=center;verticalAlign=middle;whiteSpace=wrap;rounded=0;fontFamily=Courier New;" vertex="1" parent="1">
          <mxGeometry x="120" y="585" width="510" height="30" as="geometry" />
        </mxCell>
        <mxCell id="KkQubDsr22zkd_DNrsne-4" value="" style="rounded=0;whiteSpace=wrap;html=1;fillColor=#fff2cc;strokeColor=#d6b656;opacity=50;sketch=1;curveFitting=1;jiggle=2;" vertex="1" parent="1">
          <mxGeometry x="127" y="590" width="37" height="20" as="geometry" />
        </mxCell>
        <mxCell id="KkQubDsr22zkd_DNrsne-22" style="edgeStyle=orthogonalEdgeStyle;rounded=0;orthogonalLoop=1;jettySize=auto;html=1;sketch=1;curveFitting=1;jiggle=2;exitX=0.124;exitY=1.007;exitDx=0;exitDy=0;exitPerimeter=0;" edge="1" parent="1" source="KkQubDsr22zkd_DNrsne-7">
          <mxGeometry relative="1" as="geometry">
            <mxPoint x="170" y="170" as="targetPoint" />
          </mxGeometry>
        </mxCell>
        <mxCell id="KkQubDsr22zkd_DNrsne-31" style="edgeStyle=orthogonalEdgeStyle;rounded=0;orthogonalLoop=1;jettySize=auto;html=1;exitX=0.25;exitY=1;exitDx=0;exitDy=0;entryX=0.5;entryY=0;entryDx=0;entryDy=0;sketch=1;curveFitting=1;jiggle=2;" edge="1" parent="1" source="KkQubDsr22zkd_DNrsne-7" target="KkQubDsr22zkd_DNrsne-30">
          <mxGeometry relative="1" as="geometry">
            <Array as="points">
              <mxPoint x="183" y="110" />
              <mxPoint x="183" y="160" />
              <mxPoint x="258" y="160" />
              <mxPoint x="258" y="400" />
              <mxPoint x="222" y="400" />
            </Array>
          </mxGeometry>
        </mxCell>
        <mxCell id="KkQubDsr22zkd_DNrsne-33" style="edgeStyle=orthogonalEdgeStyle;rounded=0;orthogonalLoop=1;jettySize=auto;html=1;entryX=0.5;entryY=0;entryDx=0;entryDy=0;sketch=1;curveFitting=1;jiggle=2;" edge="1" parent="1" source="KkQubDsr22zkd_DNrsne-7" target="KkQubDsr22zkd_DNrsne-32">
          <mxGeometry relative="1" as="geometry">
            <Array as="points">
              <mxPoint x="190" y="140" />
              <mxPoint x="315" y="140" />
            </Array>
          </mxGeometry>
        </mxCell>
        <mxCell id="KkQubDsr22zkd_DNrsne-38" style="edgeStyle=orthogonalEdgeStyle;rounded=0;orthogonalLoop=1;jettySize=auto;html=1;entryX=0.5;entryY=0;entryDx=0;entryDy=0;sketch=1;curveFitting=1;jiggle=2;" edge="1" parent="1" source="KkQubDsr22zkd_DNrsne-7" target="KkQubDsr22zkd_DNrsne-39">
          <mxGeometry relative="1" as="geometry">
            <Array as="points">
              <mxPoint x="204" y="130" />
              <mxPoint x="370" y="130" />
              <mxPoint x="370" y="350" />
              <mxPoint x="330" y="350" />
              <mxPoint x="330" y="460" />
              <mxPoint x="305" y="460" />
            </Array>
          </mxGeometry>
        </mxCell>
        <mxCell id="KkQubDsr22zkd_DNrsne-7" value="DataDecl" style="rounded=0;whiteSpace=wrap;html=1;fillColor=none;fontFamily=Tahoma;sketch=1;curveFitting=1;jiggle=2;" vertex="1" parent="1">
          <mxGeometry x="158.5" y="80" width="90" height="30" as="geometry" />
        </mxCell>
        <mxCell id="KkQubDsr22zkd_DNrsne-42" style="edgeStyle=orthogonalEdgeStyle;rounded=0;orthogonalLoop=1;jettySize=auto;html=1;entryX=0.5;entryY=0;entryDx=0;entryDy=0;sketch=1;curveFitting=1;jiggle=2;" edge="1" parent="1" source="KkQubDsr22zkd_DNrsne-8" target="KkQubDsr22zkd_DNrsne-41">
          <mxGeometry relative="1" as="geometry">
            <Array as="points">
              <mxPoint x="380" y="470" />
              <mxPoint x="315" y="470" />
            </Array>
          </mxGeometry>
        </mxCell>
        <mxCell id="KkQubDsr22zkd_DNrsne-44" style="edgeStyle=orthogonalEdgeStyle;rounded=0;orthogonalLoop=1;jettySize=auto;html=1;entryX=0.5;entryY=0;entryDx=0;entryDy=0;sketch=1;curveFitting=1;jiggle=2;" edge="1" parent="1" source="KkQubDsr22zkd_DNrsne-8" target="KkQubDsr22zkd_DNrsne-43">
          <mxGeometry relative="1" as="geometry" />
        </mxCell>
        <mxCell id="KkQubDsr22zkd_DNrsne-8" value="DataDeclRest" style="rounded=0;whiteSpace=wrap;html=1;fillColor=none;fontFamily=Tahoma;sketch=1;curveFitting=1;jiggle=2;" vertex="1" parent="1">
          <mxGeometry x="360" y="80" width="80" height="30" as="geometry" />
        </mxCell>
        <mxCell id="KkQubDsr22zkd_DNrsne-23" style="edgeStyle=orthogonalEdgeStyle;rounded=0;orthogonalLoop=1;jettySize=auto;html=1;entryX=0.5;entryY=0;entryDx=0;entryDy=0;sketch=1;curveFitting=1;jiggle=2;exitX=0.25;exitY=1;exitDx=0;exitDy=0;" edge="1" parent="1" source="KkQubDsr22zkd_DNrsne-10" target="KkQubDsr22zkd_DNrsne-12">
          <mxGeometry relative="1" as="geometry" />
        </mxCell>
        <mxCell id="KkQubDsr22zkd_DNrsne-25" style="edgeStyle=orthogonalEdgeStyle;rounded=0;orthogonalLoop=1;jettySize=auto;html=1;exitX=0.562;exitY=0.984;exitDx=0;exitDy=0;sketch=1;curveFitting=1;jiggle=2;exitPerimeter=0;" edge="1" parent="1" source="KkQubDsr22zkd_DNrsne-10">
          <mxGeometry relative="1" as="geometry">
            <mxPoint x="185" y="591" as="targetPoint" />
            <Array as="points">
              <mxPoint x="181" y="250" />
              <mxPoint x="150" y="250" />
              <mxPoint x="150" y="330" />
              <mxPoint x="185" y="330" />
              <mxPoint x="185" y="590" />
            </Array>
          </mxGeometry>
        </mxCell>
        <mxCell id="KkQubDsr22zkd_DNrsne-84" style="edgeStyle=orthogonalEdgeStyle;rounded=0;orthogonalLoop=1;jettySize=auto;html=1;exitX=0.75;exitY=1;exitDx=0;exitDy=0;entryX=0.5;entryY=0;entryDx=0;entryDy=0;sketch=1;curveFitting=1;jiggle=2;" edge="1" parent="1" source="KkQubDsr22zkd_DNrsne-10" target="KkQubDsr22zkd_DNrsne-83">
          <mxGeometry relative="1" as="geometry" />
        </mxCell>
        <mxCell id="KkQubDsr22zkd_DNrsne-10" value="DataNameList" style="rounded=0;whiteSpace=wrap;html=1;fillColor=none;fontFamily=Tahoma;sketch=1;curveFitting=1;jiggle=2;" vertex="1" parent="1">
          <mxGeometry x="130" y="170" width="90" height="30" as="geometry" />
        </mxCell>
        <mxCell id="KkQubDsr22zkd_DNrsne-24" style="edgeStyle=orthogonalEdgeStyle;rounded=0;orthogonalLoop=1;jettySize=auto;html=1;entryX=0.5;entryY=0;entryDx=0;entryDy=0;sketch=1;curveFitting=1;jiggle=2;" edge="1" parent="1" source="KkQubDsr22zkd_DNrsne-12" target="KkQubDsr22zkd_DNrsne-15">
          <mxGeometry relative="1" as="geometry">
            <Array as="points">
              <mxPoint x="110" y="340" />
              <mxPoint x="150" y="340" />
              <mxPoint x="150" y="398" />
              <mxPoint x="172" y="398" />
            </Array>
          </mxGeometry>
        </mxCell>
        <mxCell id="KkQubDsr22zkd_DNrsne-12" value="DataName" style="rounded=0;whiteSpace=wrap;html=1;fillColor=none;fontFamily=Tahoma;sketch=1;curveFitting=1;jiggle=2;" vertex="1" parent="1">
          <mxGeometry x="80" y="270" width="60" height="30" as="geometry" />
        </mxCell>
        <mxCell id="KkQubDsr22zkd_DNrsne-15" value="" style="rounded=0;whiteSpace=wrap;html=1;fillColor=#fff2cc;strokeColor=#d6b656;opacity=50;sketch=1;curveFitting=1;jiggle=2;" vertex="1" parent="1">
          <mxGeometry x="164" y="590" width="16" height="20" as="geometry" />
        </mxCell>
        <mxCell id="KkQubDsr22zkd_DNrsne-17" value="" style="rounded=0;whiteSpace=wrap;html=1;fillColor=#fff2cc;strokeColor=#d6b656;opacity=50;sketch=1;curveFitting=1;jiggle=2;" vertex="1" parent="1">
          <mxGeometry x="180" y="590" width="10" height="20" as="geometry" />
        </mxCell>
        <mxCell id="KkQubDsr22zkd_DNrsne-20" style="edgeStyle=orthogonalEdgeStyle;rounded=0;orthogonalLoop=1;jettySize=auto;html=1;entryX=0.5;entryY=0;entryDx=0;entryDy=0;sketch=1;curveFitting=1;jiggle=2;exitX=0.25;exitY=1;exitDx=0;exitDy=0;" edge="1" parent="1" source="KkQubDsr22zkd_DNrsne-19" target="KkQubDsr22zkd_DNrsne-4">
          <mxGeometry relative="1" as="geometry">
            <Array as="points">
              <mxPoint x="300" y="10" />
              <mxPoint x="70" y="10" />
              <mxPoint x="70" y="360" />
              <mxPoint x="145" y="360" />
            </Array>
          </mxGeometry>
        </mxCell>
        <mxCell id="KkQubDsr22zkd_DNrsne-21" style="edgeStyle=orthogonalEdgeStyle;rounded=0;orthogonalLoop=1;jettySize=auto;html=1;sketch=1;curveFitting=1;jiggle=2;exitX=0.5;exitY=1;exitDx=0;exitDy=0;" edge="1" parent="1" source="KkQubDsr22zkd_DNrsne-19" target="KkQubDsr22zkd_DNrsne-7">
          <mxGeometry relative="1" as="geometry">
            <Array as="points">
              <mxPoint x="320" y="60" />
              <mxPoint x="205" y="60" />
            </Array>
          </mxGeometry>
        </mxCell>
        <mxCell id="KkQubDsr22zkd_DNrsne-40" style="edgeStyle=orthogonalEdgeStyle;rounded=0;orthogonalLoop=1;jettySize=auto;html=1;sketch=1;curveFitting=1;jiggle=2;exitX=0.75;exitY=1;exitDx=0;exitDy=0;" edge="1" parent="1" source="KkQubDsr22zkd_DNrsne-19" target="KkQubDsr22zkd_DNrsne-8">
          <mxGeometry relative="1" as="geometry" />
        </mxCell>
        <mxCell id="KkQubDsr22zkd_DNrsne-19" value="DataStat" style="rounded=0;whiteSpace=wrap;html=1;fillColor=none;fontFamily=Tahoma;sketch=1;curveFitting=1;jiggle=2;" vertex="1" parent="1">
          <mxGeometry x="280" y="-30" width="80" height="30" as="geometry" />
        </mxCell>
        <mxCell id="KkQubDsr22zkd_DNrsne-28" style="edgeStyle=orthogonalEdgeStyle;rounded=0;orthogonalLoop=1;jettySize=auto;html=1;sketch=1;curveFitting=1;jiggle=2;entryX=0.75;entryY=0;entryDx=0;entryDy=0;" edge="1" parent="1" source="KkQubDsr22zkd_DNrsne-26" target="KkQubDsr22zkd_DNrsne-29">
          <mxGeometry relative="1" as="geometry">
            <mxPoint x="205.66666666666663" y="374.66666666666663" as="targetPoint" />
            <Array as="points">
              <mxPoint x="210" y="480" />
              <mxPoint x="210" y="480" />
            </Array>
          </mxGeometry>
        </mxCell>
        <mxCell id="KkQubDsr22zkd_DNrsne-26" value="DataName" style="rounded=0;whiteSpace=wrap;html=1;fillColor=none;fontFamily=Tahoma;sketch=1;curveFitting=1;jiggle=2;" vertex="1" parent="1">
          <mxGeometry x="188.5" y="340" width="60" height="30" as="geometry" />
        </mxCell>
        <mxCell id="KkQubDsr22zkd_DNrsne-29" value="" style="rounded=0;whiteSpace=wrap;html=1;fillColor=#fff2cc;strokeColor=#d6b656;opacity=50;sketch=1;curveFitting=1;jiggle=2;" vertex="1" parent="1">
          <mxGeometry x="190" y="590" width="27" height="20" as="geometry" />
        </mxCell>
        <mxCell id="KkQubDsr22zkd_DNrsne-30" value="" style="rounded=0;whiteSpace=wrap;html=1;fillColor=#fff2cc;strokeColor=#d6b656;opacity=50;sketch=1;curveFitting=1;jiggle=2;" vertex="1" parent="1">
          <mxGeometry x="217" y="590" width="10" height="20" as="geometry" />
        </mxCell>
        <mxCell id="KkQubDsr22zkd_DNrsne-35" style="edgeStyle=orthogonalEdgeStyle;rounded=0;orthogonalLoop=1;jettySize=auto;html=1;entryX=0.5;entryY=0;entryDx=0;entryDy=0;sketch=1;curveFitting=1;jiggle=2;" edge="1" parent="1" source="KkQubDsr22zkd_DNrsne-32" target="KkQubDsr22zkd_DNrsne-34">
          <mxGeometry relative="1" as="geometry" />
        </mxCell>
        <mxCell id="KkQubDsr22zkd_DNrsne-32" value="DataValueList" style="rounded=0;whiteSpace=wrap;html=1;fillColor=none;fontFamily=Tahoma;sketch=1;curveFitting=1;jiggle=2;" vertex="1" parent="1">
          <mxGeometry x="270" y="170" width="90" height="30" as="geometry" />
        </mxCell>
        <mxCell id="KkQubDsr22zkd_DNrsne-37" style="edgeStyle=orthogonalEdgeStyle;rounded=0;orthogonalLoop=1;jettySize=auto;html=1;entryX=0.5;entryY=0;entryDx=0;entryDy=0;sketch=1;curveFitting=1;jiggle=2;" edge="1" parent="1" source="KkQubDsr22zkd_DNrsne-34" target="KkQubDsr22zkd_DNrsne-36">
          <mxGeometry relative="1" as="geometry" />
        </mxCell>
        <mxCell id="KkQubDsr22zkd_DNrsne-34" value="DataValue" style="rounded=0;whiteSpace=wrap;html=1;fillColor=none;fontFamily=Tahoma;sketch=1;curveFitting=1;jiggle=2;" vertex="1" parent="1">
          <mxGeometry x="270" y="270" width="90" height="30" as="geometry" />
        </mxCell>
        <mxCell id="KkQubDsr22zkd_DNrsne-36" value="" style="rounded=0;whiteSpace=wrap;html=1;fillColor=#fff2cc;strokeColor=#d6b656;opacity=50;sketch=1;curveFitting=1;jiggle=2;" vertex="1" parent="1">
          <mxGeometry x="227" y="590" width="73" height="20" as="geometry" />
        </mxCell>
        <mxCell id="KkQubDsr22zkd_DNrsne-39" value="" style="rounded=0;whiteSpace=wrap;html=1;fillColor=#fff2cc;strokeColor=#d6b656;opacity=50;sketch=1;curveFitting=1;jiggle=2;" vertex="1" parent="1">
          <mxGeometry x="300" y="590" width="10" height="20" as="geometry" />
        </mxCell>
        <mxCell id="KkQubDsr22zkd_DNrsne-41" value="" style="rounded=0;whiteSpace=wrap;html=1;fillColor=#fff2cc;strokeColor=#d6b656;opacity=50;sketch=1;curveFitting=1;jiggle=2;" vertex="1" parent="1">
          <mxGeometry x="310" y="590" width="10" height="20" as="geometry" />
        </mxCell>
        <mxCell id="KkQubDsr22zkd_DNrsne-52" style="edgeStyle=orthogonalEdgeStyle;rounded=0;orthogonalLoop=1;jettySize=auto;html=1;sketch=1;curveFitting=1;jiggle=2;entryX=0.25;entryY=0;entryDx=0;entryDy=0;exitX=0.124;exitY=1;exitDx=0;exitDy=0;exitPerimeter=0;" edge="1" parent="1" source="KkQubDsr22zkd_DNrsne-43" target="KkQubDsr22zkd_DNrsne-51">
          <mxGeometry relative="1" as="geometry" />
        </mxCell>
        <mxCell id="KkQubDsr22zkd_DNrsne-70" style="edgeStyle=orthogonalEdgeStyle;rounded=0;orthogonalLoop=1;jettySize=auto;html=1;exitX=0.25;exitY=1;exitDx=0;exitDy=0;entryX=0.5;entryY=0;entryDx=0;entryDy=0;sketch=1;curveFitting=1;jiggle=2;" edge="1" parent="1" source="KkQubDsr22zkd_DNrsne-43" target="KkQubDsr22zkd_DNrsne-71">
          <mxGeometry relative="1" as="geometry">
            <mxPoint x="590" y="570" as="targetPoint" />
            <Array as="points">
              <mxPoint x="420" y="200" />
              <mxPoint x="420" y="230" />
              <mxPoint x="570" y="230" />
              <mxPoint x="570" y="580" />
              <mxPoint x="530" y="580" />
            </Array>
          </mxGeometry>
        </mxCell>
        <mxCell id="KkQubDsr22zkd_DNrsne-74" style="edgeStyle=orthogonalEdgeStyle;rounded=0;orthogonalLoop=1;jettySize=auto;html=1;exitX=0.5;exitY=1;exitDx=0;exitDy=0;sketch=1;curveFitting=1;jiggle=2;" edge="1" parent="1" source="KkQubDsr22zkd_DNrsne-43" target="KkQubDsr22zkd_DNrsne-72">
          <mxGeometry relative="1" as="geometry">
            <Array as="points">
              <mxPoint x="445" y="220" />
              <mxPoint x="625" y="220" />
            </Array>
          </mxGeometry>
        </mxCell>
        <mxCell id="KkQubDsr22zkd_DNrsne-82" style="edgeStyle=orthogonalEdgeStyle;rounded=0;orthogonalLoop=1;jettySize=auto;html=1;exitX=0.75;exitY=1;exitDx=0;exitDy=0;entryX=0.5;entryY=0;entryDx=0;entryDy=0;sketch=1;curveFitting=1;jiggle=2;" edge="1" parent="1" source="KkQubDsr22zkd_DNrsne-43" target="KkQubDsr22zkd_DNrsne-80">
          <mxGeometry relative="1" as="geometry">
            <Array as="points">
              <mxPoint x="468" y="210" />
              <mxPoint x="690" y="210" />
              <mxPoint x="690" y="580" />
              <mxPoint x="617" y="580" />
            </Array>
          </mxGeometry>
        </mxCell>
        <mxCell id="KkQubDsr22zkd_DNrsne-43" value="DataDecl" style="rounded=0;whiteSpace=wrap;html=1;fillColor=none;fontFamily=Tahoma;sketch=1;curveFitting=1;jiggle=2;" vertex="1" parent="1">
          <mxGeometry x="400" y="170" width="90" height="30" as="geometry" />
        </mxCell>
        <mxCell id="KkQubDsr22zkd_DNrsne-49" value="" style="rounded=0;whiteSpace=wrap;html=1;fillColor=#fff2cc;strokeColor=#d6b656;opacity=50;sketch=1;curveFitting=1;jiggle=2;" vertex="1" parent="1">
          <mxGeometry x="320" y="590" width="60" height="20" as="geometry" />
        </mxCell>
        <mxCell id="KkQubDsr22zkd_DNrsne-53" style="edgeStyle=orthogonalEdgeStyle;rounded=0;orthogonalLoop=1;jettySize=auto;html=1;entryX=0.5;entryY=0;entryDx=0;entryDy=0;sketch=1;curveFitting=1;jiggle=2;exitX=0.25;exitY=1;exitDx=0;exitDy=0;" edge="1" parent="1" source="KkQubDsr22zkd_DNrsne-51">
          <mxGeometry relative="1" as="geometry">
            <mxPoint x="414" y="340" as="targetPoint" />
          </mxGeometry>
        </mxCell>
        <mxCell id="KkQubDsr22zkd_DNrsne-51" value="DataNameList" style="rounded=0;whiteSpace=wrap;html=1;fillColor=none;fontFamily=Tahoma;sketch=1;curveFitting=1;jiggle=2;" vertex="1" parent="1">
          <mxGeometry x="400" y="270" width="90" height="30" as="geometry" />
        </mxCell>
        <mxCell id="KkQubDsr22zkd_DNrsne-64" value="" style="rounded=0;whiteSpace=wrap;html=1;fillColor=#fff2cc;strokeColor=#d6b656;opacity=50;sketch=1;curveFitting=1;jiggle=2;" vertex="1" parent="1">
          <mxGeometry x="380" y="590" width="130" height="20" as="geometry" />
        </mxCell>
        <mxCell id="KkQubDsr22zkd_DNrsne-66" value="" style="rounded=0;whiteSpace=wrap;html=1;fillColor=#fff2cc;strokeColor=#d6b656;opacity=50;sketch=1;curveFitting=1;jiggle=2;" vertex="1" parent="1">
          <mxGeometry x="510" y="590" width="10" height="20" as="geometry" />
        </mxCell>
        <mxCell id="KkQubDsr22zkd_DNrsne-71" value="" style="rounded=0;whiteSpace=wrap;html=1;fillColor=#fff2cc;strokeColor=#d6b656;opacity=50;sketch=1;curveFitting=1;jiggle=2;" vertex="1" parent="1">
          <mxGeometry x="520" y="590" width="20" height="20" as="geometry" />
        </mxCell>
        <mxCell id="KkQubDsr22zkd_DNrsne-76" style="edgeStyle=orthogonalEdgeStyle;rounded=0;orthogonalLoop=1;jettySize=auto;html=1;entryX=0.5;entryY=0;entryDx=0;entryDy=0;sketch=1;curveFitting=1;jiggle=2;" edge="1" parent="1" source="KkQubDsr22zkd_DNrsne-72" target="KkQubDsr22zkd_DNrsne-75">
          <mxGeometry relative="1" as="geometry" />
        </mxCell>
        <mxCell id="KkQubDsr22zkd_DNrsne-72" value="DataValueList" style="rounded=0;whiteSpace=wrap;html=1;fillColor=none;fontFamily=Tahoma;sketch=1;curveFitting=1;jiggle=2;" vertex="1" parent="1">
          <mxGeometry x="580" y="270" width="90" height="30" as="geometry" />
        </mxCell>
        <mxCell id="KkQubDsr22zkd_DNrsne-79" style="edgeStyle=orthogonalEdgeStyle;rounded=0;orthogonalLoop=1;jettySize=auto;html=1;entryX=0.75;entryY=0;entryDx=0;entryDy=0;sketch=1;curveFitting=1;jiggle=2;" edge="1" parent="1" source="KkQubDsr22zkd_DNrsne-75" target="KkQubDsr22zkd_DNrsne-78">
          <mxGeometry relative="1" as="geometry" />
        </mxCell>
        <mxCell id="KkQubDsr22zkd_DNrsne-75" value="DataValue" style="rounded=0;whiteSpace=wrap;html=1;fillColor=none;fontFamily=Tahoma;sketch=1;curveFitting=1;jiggle=2;" vertex="1" parent="1">
          <mxGeometry x="580" y="340" width="90" height="30" as="geometry" />
        </mxCell>
        <mxCell id="KkQubDsr22zkd_DNrsne-78" value="" style="rounded=0;whiteSpace=wrap;html=1;fillColor=#fff2cc;strokeColor=#d6b656;opacity=50;sketch=1;curveFitting=1;jiggle=2;" vertex="1" parent="1">
          <mxGeometry x="540" y="590" width="70" height="20" as="geometry" />
        </mxCell>
        <mxCell id="KkQubDsr22zkd_DNrsne-80" value="" style="rounded=0;whiteSpace=wrap;html=1;fillColor=#fff2cc;strokeColor=#d6b656;opacity=50;sketch=1;curveFitting=1;jiggle=2;" vertex="1" parent="1">
          <mxGeometry x="610" y="590" width="14" height="20" as="geometry" />
        </mxCell>
        <mxCell id="KkQubDsr22zkd_DNrsne-85" style="edgeStyle=orthogonalEdgeStyle;rounded=0;orthogonalLoop=1;jettySize=auto;html=1;entryX=0.5;entryY=0;entryDx=0;entryDy=0;sketch=1;curveFitting=1;jiggle=2;" edge="1" parent="1" source="KkQubDsr22zkd_DNrsne-83" target="KkQubDsr22zkd_DNrsne-26">
          <mxGeometry relative="1" as="geometry" />
        </mxCell>
        <mxCell id="KkQubDsr22zkd_DNrsne-83" value="DataNameList" style="rounded=0;whiteSpace=wrap;html=1;fillColor=none;fontFamily=Tahoma;sketch=1;curveFitting=1;jiggle=2;" vertex="1" parent="1">
          <mxGeometry x="158.5" y="270" width="90" height="30" as="geometry" />
        </mxCell>
        <mxCell id="KkQubDsr22zkd_DNrsne-88" style="edgeStyle=orthogonalEdgeStyle;rounded=0;orthogonalLoop=1;jettySize=auto;html=1;sketch=1;curveFitting=1;jiggle=2;" edge="1" parent="1" source="KkQubDsr22zkd_DNrsne-86">
          <mxGeometry relative="1" as="geometry">
            <mxPoint x="413" y="391" as="targetPoint" />
          </mxGeometry>
        </mxCell>
        <mxCell id="KkQubDsr22zkd_DNrsne-86" value="DataName" style="rounded=0;whiteSpace=wrap;html=1;fillColor=none;fontFamily=Tahoma;sketch=1;curveFitting=1;jiggle=2;" vertex="1" parent="1">
          <mxGeometry x="383.5" y="340" width="60" height="30" as="geometry" />
        </mxCell>
        <mxCell id="KkQubDsr22zkd_DNrsne-89" style="edgeStyle=orthogonalEdgeStyle;rounded=0;orthogonalLoop=1;jettySize=auto;html=1;entryX=0.5;entryY=0;entryDx=0;entryDy=0;sketch=1;curveFitting=1;jiggle=2;exitX=0.086;exitY=1.011;exitDx=0;exitDy=0;exitPerimeter=0;" edge="1" parent="1" source="KkQubDsr22zkd_DNrsne-87" target="KkQubDsr22zkd_DNrsne-49">
          <mxGeometry relative="1" as="geometry">
            <Array as="points">
              <mxPoint x="390" y="480" />
              <mxPoint x="350" y="480" />
            </Array>
          </mxGeometry>
        </mxCell>
        <mxCell id="KkQubDsr22zkd_DNrsne-92" style="edgeStyle=orthogonalEdgeStyle;rounded=0;orthogonalLoop=1;jettySize=auto;html=1;entryX=0.22;entryY=0;entryDx=0;entryDy=0;entryPerimeter=0;sketch=1;curveFitting=1;jiggle=2;" edge="1" parent="1" source="KkQubDsr22zkd_DNrsne-87" target="KkQubDsr22zkd_DNrsne-90">
          <mxGeometry relative="1" as="geometry" />
        </mxCell>
        <mxCell id="KkQubDsr22zkd_DNrsne-94" style="edgeStyle=orthogonalEdgeStyle;rounded=0;orthogonalLoop=1;jettySize=auto;html=1;exitX=0.75;exitY=1;exitDx=0;exitDy=0;entryX=0.5;entryY=0;entryDx=0;entryDy=0;sketch=1;curveFitting=1;jiggle=2;" edge="1" parent="1" source="KkQubDsr22zkd_DNrsne-87" target="KkQubDsr22zkd_DNrsne-66">
          <mxGeometry relative="1" as="geometry">
            <Array as="points">
              <mxPoint x="434" y="430" />
              <mxPoint x="515" y="430" />
            </Array>
          </mxGeometry>
        </mxCell>
        <mxCell id="KkQubDsr22zkd_DNrsne-87" value="DataDoList" style="rounded=0;whiteSpace=wrap;html=1;fillColor=none;fontFamily=Tahoma;sketch=1;curveFitting=1;jiggle=2;" vertex="1" parent="1">
          <mxGeometry x="384" y="390" width="66" height="30" as="geometry" />
        </mxCell>
        <mxCell id="KkQubDsr22zkd_DNrsne-93" style="edgeStyle=orthogonalEdgeStyle;rounded=0;orthogonalLoop=1;jettySize=auto;html=1;entryX=0.5;entryY=0;entryDx=0;entryDy=0;sketch=1;curveFitting=1;jiggle=2;" edge="1" parent="1" source="KkQubDsr22zkd_DNrsne-90" target="KkQubDsr22zkd_DNrsne-64">
          <mxGeometry relative="1" as="geometry" />
        </mxCell>
        <mxCell id="KkQubDsr22zkd_DNrsne-90" value="DataDoListRest" style="rounded=0;whiteSpace=wrap;html=1;fillColor=none;fontFamily=Tahoma;sketch=1;curveFitting=1;jiggle=2;" vertex="1" parent="1">
          <mxGeometry x="395" y="440" width="100" height="30" as="geometry" />
        </mxCell>
      </root>
    </mxGraphModel>
  </diagram>
</mxfile>
